PathFileType	4	(X/Y/Z)	/home/abdul/Desktop/myosuite/custom_workspace/IK/output/S4_12_3.trc
DataRate	CameraRate	NumFrames	NumMarkers	Units	OrigDataRate	OrigDataStartFrame	OrigNumFrames
200.0	200.0	33	3	mm	200.0	577	923
Frame#	Time	V_Shoulder			V_Elbow			V_Wrist		
		X1	Y1	Z1	X2	Y2	Z2	X3	Y3	Z3

577	2.88	-80.21186764378	561.9187693425748	274.27529107499157	-134.73981238718545	419.35350580644894	18.388274075926162	-76.58345400928076	209.43879021381423	61.77593631825411
578	2.885	-80.19531694543836	561.826699043771	274.27338059282414	-134.7092372070342	419.30601027347666	18.342671013069705	-76.55629314230346	209.350715805303	61.614632369252135
579	2.89	-80.17976044927894	561.7368061199974	274.27076110990384	-134.676985377707	419.257443855892	18.297807345140804	-76.52692459884649	209.25951113010848	61.448552678126774
580	2.895	-80.16519195011584	561.6491082669631	274.2674543727583	-134.64303540688036	419.20780388272755	18.253724809376163	-76.49544584512107	209.16519326987265	61.27760711967986
581	2.9	-80.15160389141538	561.5636240684771	274.26348479617127	-134.60737038648136	419.1570900794287	18.210468494015352	-76.46195060869957	209.06778682927836	61.10173074375504
582	2.905	-80.13898740944205	561.4803727959802	274.2588793389187	-134.56997789152027	419.1053046780713	18.168086414628323	-76.4265283904042	208.96732381773273	60.92088307031851
583	2.91	-80.12733237884056	561.3993742009333	274.2536673702696	-134.5308498716471	419.0524525482026	18.126629059958265	-76.38926401041388	208.86384357822214	60.73504737316416
584	2.915	-80.11662745943381	561.3206483011832	274.2478805278394	-134.48998253652047	418.99854134773454	18.086148909511547	-76.3502371915628	208.75739276245068	60.54422995703417
585	2.92	-80.10686014401684	561.2442151624642	274.24155256742057	-134.44737623611363	418.94358169317485	18.046699925290564	-76.30952218272313	208.64802535106244	60.34845943278489
586	2.925	-80.09801680692642	561.1700946762085	274.2347192054486	-134.40303533711742	418.88758734833914	18.008337020220594	-76.26718742507022	208.53580271744255	60.14778599504481
587	2.93	-80.09008275316849	561.0983063348641	274.2274179547933	-134.3569680966305	418.83057543054986	17.971115505967497	-76.22329526392095	208.42079373329486	59.94228070660881
588	2.935	-80.0830422678873	561.028869005933	274.21968795459316	-134.30918653435404	418.7725666331917	17.935090522979063	-76.17790170871498	208.30307491390818	59.73203479358992
589	2.94	-80.07687866596466	560.9618007059481	274.2115697948761	-134.25970630452952	418.71358546335983	17.900316455707884	-76.13105624357448	208.18273060074733	59.51715895510861
590	2.945	-80.0715743415418	560.8971183756177	274.20310533673154	-134.20854656887664	418.6536604932132	17.8668463360877	-76.08280169072971	208.05985317873984	59.297782691039444
591	2.95	-80.06711081726247	560.8348376573637	274.19433752881883	-134.15572987180042	418.5928246235194	17.83473123843741	-76.0331741289371	207.9345433253788	59.074053651057696
592	2.955	-80.06346879304229	560.7749726764749	274.18531022101155	-134.10128201914324	418.53111535776327	17.804019669056924	-75.98220286884107	207.8069102885238	58.84613700793514
593	2.96	-80.06062819417743	560.7175358270891	274.1760679759896	-134.04523196176078	418.46857508507827	17.77475695385635	-75.92991048704347	207.6770721895596	58.61421485772405
594	2.965	-80.0585682186145	560.6625375641988	274.1666558796001	-133.987611685194	418.4052513701582	17.74698462742397	-75.87631292044289	207.5451563483632	58.378485649144345
595	2.97	-80.05726738321225	560.609986202864	274.1571193508123	-133.92845610670076	418.34119724820755	17.720739826988726	-75.82141962219174	207.41129962633948	58.13916364415074
596	2.975	-80.05670356883695	560.5598877257793	274.14750395209404	-133.8678029808916	418.27647152290206	17.696054694769295	-75.76523378039212	207.27564878361113	57.89647841130511
597	2.98	-80.05685406414413	560.512245600325	274.1378552010355	-133.80569281519107	418.21113906524863	17.6729557922234	-75.70775260041157	207.13836084629276	57.65067435321708
598	2.985	-80.05769560791147	560.46706060619	274.1282183840387	-133.7421687963133	418.1452711111655	17.651463529717866	-75.64896765144778	206.99960347963997	57.40201026894238
599	2.99	-80.05920442979993	560.4243306746174	274.1186383728835	-133.67727672890373	418.07894555553725	17.63159161513149	-75.58886527770795	206.85955536274858	57.1507589518462
600	2.995	-80.06135628943406	560.384050740282	274.10915944496725	-133.61106498744977	418.0122472404535	17.613346524878974	-75.5274270742927	206.71840656037824	56.89720682304927
601	3.0	-80.0641265137056	560.3462126067587	274.0998251079978	-133.54358448251156	417.9452682352936	17.59672700080433	-75.4646304275893	206.57635888739915	56.64165360017806
602	3.005	-80.06749003221931	560.3108048264876	274.0906779299017	-133.47488864226037	417.87810810629253	17.581723576336586	-75.40044911968278	206.43362626130335	56.384412000741236
603	3.01	-80.07142141081438	560.2778125960867	274.0817593746844	-133.40503341024177	417.8108741732049	17.56831813522861	-75.33485399598842	206.2904350381873	56.125807479051815
604	3.015	-80.0758948831102	560.2472176678001	274.07310964495167	-133.3340772602033	417.7436817506759	17.55648350611184	-75.26781369499659	206.1470243275993	55.86617799521284
605	3.02	-80.08088438003969	560.2189982778053	274.06476753177435	-133.26208122873834	417.67665437193284	17.546183095995058	-75.19929543869972	206.0036462816557	55.60587381428414
606	3.025	-80.08636355735041	560.1931290920338	274.0567702725412	-133.18910896640438	417.60992399243094	17.537370565714482	-75.12926588194574	205.86056635385992	55.345257333352734
607	3.03	-80.0923058210672	560.1695811700861	274.0491534174125	-133.1152268078699	417.5436311711138	17.52998955020527	-75.05769201863123	205.71806352311486	55.08470293384186
608	3.035	-80.09868435092767	560.1483219477468	274.0419507049441	-133.04050386153418	417.47792522699535	17.523973426311212	-74.98454214231371	205.5764304784958	54.8245968560156
609	3.04	-80.10547212181616	560.1293152385251	274.03519394741335	-132.96501211894397	417.4129643688219	17.519245130680154	-74.90978685848702	205.43597376045045	54.56533709227206
